#!OML:ASF H:\GeneralSubjects\Female5\Project 1\Capture day 1\Session 1\Female5.ASF
:FULLY-SPECIFIED
:DEGREES
161
root 9.64892 15.7067 3.3847 204.766 -124.965 -194.711
lowerback 10.0353 2.2998 4.38593
upperback -7.55067 3.83754 0.412425
thorax -13.727 1.38439 -2.82237
lowerneck -22.5598 1.78274 -2.69554
upperneck 34.4838 7.05534 -9.3687
head 16.6458 0.936359 -2.27163
rclavicle -7.08916e-014 3.02153e-014
rhumerus -55.1836 26.3049 -96.539
rradius 37.0223
rwrist -14.5993
rhand -23.7716 -20.2844
rfingers 7.12502
rthumb 2.69793 -50.2471
lclavicle -7.08916e-014 3.02153e-014
lhumerus -41.1511 -4.33422 85.113
lradius 35.3556
lwrist -9.5669
lhand -23.6186 29.8114
lfingers 7.12502
lthumb 2.84571 59.7722
rfemur -0.368633 3.7843 42.1181
rtibia -0.66967
rfoot -41.9304 -28.3639
rtoes 5.07828
lfemur -40.8654 -34.4203 -2.64295
ltibia 7.61928
lfoot 4.39341 13.009
ltoes -67.6363
162
root 9.75182 15.704 3.32562 205.158 -125.677 -195.177
lowerback 10.0902 2.44128 4.63047
upperback -7.54912 4.07679 0.430765
thorax -13.7281 1.47503 -2.99102
lowerneck -22.9045 1.76678 -2.84928
upperneck 34.754 7.14026 -9.29391
head 16.8661 0.940697 -2.20737
rclavicle 6.43068e-014 3.33958e-014
rhumerus -55.2222 26.2403 -96.5334
rradius 35.6744
rwrist -13.1555
rhand -18.1867 -24.7723
rfingers 7.12502
rthumb 8.09013 -54.5975
lclavicle 6.43068e-014 3.33958e-014
lhumerus -41.101 -3.27408 84.1938
lradius 34.1552
lwrist -10.1371
lhand -23.3729 29.5687
lfingers 7.12502
lthumb 3.08299 59.5262
rfemur -0.841775 3.17009 42.5129
rtibia -0.856019
rfoot -41.6095 -28.2903
rtoes 4.71522
lfemur -41.6808 -34.4102 -1.70498
ltibia 7.69059
lfoot 3.09102 12.9996
ltoes -68.5595
163
root 9.85075 15.7091 3.26976 205.219 -126.402 -195.43
lowerback 10.3198 2.4249 4.4546
upperback -7.58122 4.07478 0.702913
thorax -13.9433 1.49908 -2.60668
lowerneck -22.8014 1.90364 -2.95322
upperneck 34.6737 7.46044 -9.50114
head 16.8333 1.03298 -2.21185
rclavicle 2.42269e-014 1.27222e-014
rhumerus -55.6016 26.9591 -96.67
rradius 34.4674
rwrist -10.82
rhand -22.3651 -22.0189
rfingers 7.12502
rthumb 4.05621 -51.96
lclavicle 2.42269e-014 1.27222e-014
lhumerus -41.54 -1.73697 83.3569
lradius 33.3138
lwrist -10.0932
lhand -22.9543 30.1184
lfingers 7.12502
lthumb 3.48726 60.0697
rfemur -0.900551 3.00887 42.8288
rtibia -1.50374
rfoot -41.3023 -29.0546
rtoes 3.73401
lfemur -42.0924 -33.9296 -1.50446
ltibia 7.93023
lfoot 1.7422 12.3856
ltoes -69.3521
164
root 9.95137 15.7153 3.21543 205.148 -127.078 -195.583
lowerback 10.5991 2.3893 4.24421
upperback -7.59833 4.03923 0.941267
thorax -14.1744 1.50933 -2.23467
lowerneck -22.6602 2.11989 -2.95965
upperneck 34.5574 7.86259 -9.73692
head 16.7836 1.17133 -2.22723
rclavicle 5.76724e-014 -2.78299e-014
rhumerus -55.8983 28.0564 -97.0104
rradius 33.3356
rwrist -8.51449
rhand -17.695 -26.157
rfingers 7.12502
rthumb 8.56466 -55.9632
lclavicle 5.76724e-014 -2.78299e-014
lhumerus -42.1174 -0.610437 82.747
lradius 32.5561
lwrist -9.92687
lhand -24.4365 32.7477
lfingers 7.12502
lthumb 2.05582 62.7175
rfemur -0.873045 3.21423 43.0996
rtibia -2.17107
rfoot -41.1946 -29.9244
rtoes 4.07144
lfemur -42.3686 -33.1186 -1.69794
ltibia 8.40227
lfoot 0.206155 11.581
ltoes -69.6056
165
root 10.0612 15.7118 3.16865 205.391 -127.616 -195.773
lowerback 10.6307 2.39453 4.2432
upperback -7.65616 4.07338 1.12868
thorax -14.2771 1.5329 -2.03692
lowerneck -22.3655 2.32088 -3.21314
upperneck 34.0961 8.23353 -9.83291
head 16.4972 1.31155 -2.1256
rclavicle -6.73383e-015 -7.95139e-016
rhumerus -55.7243 28.731 -97.0432
rradius 32.186
rwrist -5.94882
rhand -20.8235 -23.0936
rfingers 7.12502
rthumb 5.5448 -53.0011
lclavicle -6.73383e-015 -7.95139e-016
lhumerus -42.603 0.56895 82.129
lradius 31.7118
lwrist -9.66695
lhand -26.5842 34.2113
lfingers 7.12502
lthumb -0.0184516 64.1911
rfemur -1.30188 3.37727 43.3206
rtibia -2.50608
rfoot -41.301 -30.0687
rtoes 5.89189
lfemur -43.0681 -32.0235 -1.85398
ltibia 9.1431
lfoot -1.86702 11.252
ltoes -69.3898
166
root 10.1445 15.7266 3.13715 204.869 -128.36 -195.507
lowerback 10.802 2.27651 4.18727
upperback -7.57249 3.92903 1.26559
thorax -14.3086 1.47994 -1.82954
lowerneck -22.4334 2.56837 -3.34634
upperneck 34.1709 8.74644 -9.99388
head 16.5945 1.47171 -2.07255
rclavicle 4.99943e-014 2.8625e-014
rhumerus -55.4665 29.3759 -96.9538
rradius 31.3504
rwrist -3.94983
rhand -21.3772 -23.6045
rfingers 7.12502
rthumb 5.01011 -53.5253
lclavicle 4.99943e-014 2.8625e-014
lhumerus -43.1175 2.08519 81.0757
lradius 30.9492
lwrist -9.54047
lhand -27.1098 34.3369
lfingers 7.12502
lthumb -0.526091 64.3159
rfemur -0.821766 4.18914 43.3819
rtibia -3.56699
rfoot -42.2468 -31.0083
rtoes 7.81773
lfemur -42.886 -31.1208 -2.86148
ltibia 9.7096
lfoot -4.62275 11.5664
ltoes -69.1122
167
root 10.2331 15.7372 3.11069 204.65 -128.802 -195.364
lowerback 10.8057 2.28767 4.00126
upperback -7.53074 3.9282 1.39938
thorax -14.2832 1.50828 -1.57683
lowerneck -22.4738 2.69714 -3.21068
upperneck 34.227 9.08381 -10.4694
head 16.708 1.55084 -2.2429
rclavicle -4.84538e-015 1.66979e-014
rhumerus -55.1129 30.1293 -96.683
rradius 30.8665
rwrist -2.62581
rhand -20.7434 -24.5198
rfingers 7.12502
rthumb 5.62208 -54.4252
lclavicle -4.84538e-015 1.66979e-014
lhumerus -43.5942 3.82423 79.6902
lradius 30.1651
lwrist -10.2037
lhand -26.3363 34.9031
lfingers 7.12502
lthumb 0.220917 64.8827
rfemur -0.582709 5.31031 43.395
rtibia -4.50945
rfoot -42.7144 -32.4545
rtoes 8.25139
lfemur -42.8069 -29.725 -3.94702
ltibia 10.4015
lfoot -7.88731 12.9217
ltoes -68.8313
168
root 10.4123 15.6963 3.09185 206.946 -128.11 -196.438
lowerback 10.1175 2.72679 4.89928
upperback -8.04086 4.63905 1.33559
thorax -14.3527 1.73625 -2.2723
lowerneck -22.5537 2.80703 -3.33532
upperneck 34.3401 9.40535 -10.6665
head 16.8246 1.62423 -2.24948
rclavicle -7.77621e-014 3.69739e-014
rhumerus -54.4274 29.7467 -95.7616
rradius 30.5305
rwrist -0.988093
rhand -21.0678 -24.6397
rfingers 7.12502
rthumb 5.30886 -54.5532
lclavicle -7.77621e-014 3.69739e-014
lhumerus -44.1047 5.70932 78.0962
lradius 29.2684
lwrist -11.2031
lhand -25.7769 35.1876
lfingers 7.12502
lthumb 0.761181 65.1659
rfemur -3.48848 3.43282 43.3397
rtibia -3.22613
rfoot -39.4805 -30.8172
rtoes 5.58182
lfemur -45.3161 -27.0239 -3.57902
ltibia 12.2096
lfoot -11.4328 15.8942
ltoes -68.6851
169
root 10.3897 15.7726 3.07807 204.253 -129.87 -195.636
lowerback 11.1478 2.13949 4.48696
upperback -7.35605 3.86199 1.68418
thorax -14.289 1.44888 -1.52998
lowerneck -22.326 3.02918 -3.5819
upperneck 34.1766 9.81317 -10.6994
head 16.7043 1.77036 -2.12914
rclavicle 3.62285e-014 -1.90833e-014
rhumerus -53.8555 30.1739 -95.359
rradius 30.5984
rwrist -1.31903
rhand 2.32899 -29.8369
rfingers 7.12502
rthumb 27.8192 -57.7976
lclavicle 3.62285e-014 -1.90833e-014
lhumerus -44.6883 7.31511 76.484
lradius 28.4411
lwrist -11.8916
lhand -25.4323 35.1302
lfingers 7.12502
lthumb 1.09403 65.1071
rfemur 0.0669409 8.51845 43.8499
rtibia -5.98268
rfoot -44.2451 -36.8265
rtoes 7.95871
lfemur -41.9247 -26.1423 -6.458
ltibia 12.1462
lfoot -12.9981 17.4797
ltoes -68.5918
